<svg xmlns="http://www.w3.org/2000/svg" xmlns:xlink="http://www.w3.org/1999/xlink" xmlns:inkscape="http://www.inkscape.org/namespaces/inkscape" version="1.1" width="382.677" height="198.425" viewBox="0 0 382.677 198.425">
<defs>
<clipPath id="clip_0">
<path transform="matrix(1,0,0,-1,0,198.425)" d="M0 198.425H382.677V0H0Z"/>
</clipPath>
</defs>
<g inkscape:groupmode="layer" inkscape:label="Layer 1">
<g clip-path="url(#clip_0)">
<path transform="matrix(1,0,0,-1,120.711,109.3096)" d="M0 0 .274-.019C.732-.05 1.334-.152 2.063-.32 2.791-.488 3.402-.67 3.882-.861 4.479-1.095 4.857-1.372 5.004-1.685 5.165-2.031 5.247-2.474 5.247-3.002V-28.328C5.247-28.923 5.139-29.386 4.927-29.705 4.716-30.022 4.364-30.279 3.884-30.467 3.567-30.589 2.998-30.682 2.192-30.745 1.355-30.811 .715-30.86 .272-30.893L0-30.913V-33.228H16.329V-30.9L16.044-30.892C15.522-30.876 14.871-30.791 14.109-30.639 13.349-30.487 12.797-30.346 12.48-30.226 11.968-30.006 11.605-29.713 11.401-29.353 11.189-28.982 11.082-28.545 11.082-28.057V-2.756C11.082-2.26 11.18-1.806 11.373-1.405 11.551-1.034 11.904-.77 12.452-.597 12.96-.439 13.567-.305 14.256-.201 14.947-.096 15.549-.035 16.045-.02L16.329-.01V2.317H0Z" fill="#333132"/>
<path transform="matrix(1,0,0,-1,128.8388,103.170009)" d="M0 0C.986 0 1.826 .377 2.496 1.119 3.16 1.853 3.496 2.736 3.496 3.742 3.496 4.655 3.165 5.457 2.513 6.128 1.859 6.8 1.014 7.14 0 7.14-.918 7.14-1.724 6.778-2.395 6.062-3.06 5.352-3.398 4.497-3.398 3.521-3.398 2.576-3.06 1.745-2.392 1.051-1.722 .354-.917 0 0 0" fill="#333132"/>
<path transform="matrix(1,0,0,-1,171.6061,131.7483)" d="M0 0C-.337-.931-.956-2.171-1.838-3.684-2.719-5.197-3.499-6.337-4.158-7.075-4.353-7.299-4.672-7.49-5.106-7.645-5.573-7.811-6.092-7.943-6.645-8.038-7.223-8.134-7.841-8.2-8.484-8.232-9.137-8.264-9.764-8.281-10.366-8.281-11.697-8.281-12.742-8.236-13.473-8.147-14.161-8.065-14.681-7.89-15.008-7.634-15.35-7.35-15.562-6.952-15.658-6.417-15.761-5.84-15.813-5.008-15.813-3.943V19.535C-15.813 20.035-15.717 20.509-15.528 20.946-15.356 21.348-15.038 21.626-14.556 21.795-14.242 21.905-13.72 22.034-13.006 22.179-12.296 22.322-11.711 22.404-11.268 22.419L-10.985 22.43V24.756H-26.328V22.44L-26.056 22.42C-25.635 22.389-25.086 22.28-24.426 22.097-23.768 21.915-23.253 21.728-22.883 21.536-22.394 21.305-22.064 21.006-21.905 20.649-21.735 20.259-21.648 19.802-21.648 19.288V-5.741C-21.648-6.33-21.748-6.814-21.945-7.178-22.137-7.533-22.441-7.797-22.877-7.986-23.142-8.104-23.64-8.204-24.355-8.283-25.099-8.364-25.667-8.421-26.059-8.454L-26.328-8.476V-10.789H1.56L2.34 .194H.07Z" fill="#333132"/>
<path transform="matrix(1,0,0,-1,207.7976,131.8611)" d="M0 0C-.223-.733-.752-1.906-1.569-3.486-2.382-5.054-3.165-6.237-3.899-7.003-4.139-7.257-4.569-7.466-5.176-7.623-5.826-7.791-6.462-7.909-7.067-7.973-7.662-8.037-8.406-8.07-9.278-8.07H-11.421C-12.766-8.07-13.815-8.025-14.539-7.937-15.224-7.853-15.766-7.668-16.151-7.388-16.524-7.116-16.769-6.72-16.901-6.178-17.042-5.599-17.114-4.787-17.114-3.764V6.421H-13.467C-12.433 6.421-11.595 6.325-10.977 6.137-10.39 5.959-9.854 5.57-9.385 4.98-9.096 4.614-8.81 4.002-8.534 3.161-8.256 2.307-8.083 1.489-8.019 .728L-7.996 .459H-5.585V14.743H-7.988L-8.018 14.483C-8.097 13.799-8.263 13.059-8.511 12.285-8.754 11.524-9.049 10.911-9.385 10.469-9.795 9.952-10.273 9.581-10.805 9.363-11.35 9.14-12.246 9.028-13.467 9.028H-17.114V22.335H-11.914C-11.02 22.335-10.213 22.319-9.514 22.286-8.819 22.253-8.213 22.204-7.716 22.141-6.814 22.02-5.83 21.282-4.792 19.948-3.73 18.582-3.031 17.278-2.713 16.075L-2.656 15.856H-.288V24.868H-27.925V22.553L-27.653 22.533C-27.227 22.501-26.639 22.404-25.909 22.243-25.187 22.085-24.607 21.902-24.181 21.697-23.678 21.466-23.346 21.173-23.196 20.825-23.032 20.445-22.949 19.999-22.949 19.5V-5.628C-22.949-6.186-23.042-6.646-23.224-6.996-23.398-7.33-23.72-7.609-24.184-7.826-24.334-7.896-24.718-8.007-25.699-8.133-26.506-8.239-27.163-8.309-27.652-8.341L-27.925-8.359V-10.677H1.664L2.368 .208H.063Z" fill="#333132"/>
<path transform="matrix(1,0,0,-1,235.1114,109.5015)" d="M0 0C.654 0 1.367-.016 2.136-.049 2.895-.081 3.535-.13 4.03-.193 4.51-.266 5.025-.567 5.561-1.088 6.125-1.633 6.654-2.284 7.138-3.021 7.606-3.73 8.035-4.493 8.414-5.289 8.791-6.081 9.054-6.771 9.197-7.341L9.252-7.563H11.475V2.509H-19.587V-7.563H-17.344L-17.285-7.347C-17.142-6.824-16.882-6.146-16.513-5.334-16.142-4.521-15.711-3.744-15.23-3.023-14.751-2.304-14.22-1.652-13.652-1.084-13.12-.551-12.61-.252-12.139-.195-11.459-.114-10.738-.061-9.996-.037-9.245-.012-8.615 0-8.108 0H-6.973V-27.889C-6.973-28.503-7.086-28.993-7.309-29.346-7.529-29.693-7.884-29.965-8.367-30.155-8.7-30.292-9.332-30.409-10.245-30.504-11.185-30.602-11.884-30.668-12.342-30.701L-12.615-30.72V-33.036H4.479V-30.709L4.194-30.7C3.69-30.685 2.965-30.579 2.04-30.386 1.113-30.192 .503-30.039 .235-29.935-.279-29.715-.626-29.417-.826-29.025-1.033-28.618-1.138-28.161-1.138-27.668V0Z" fill="#333132"/>
<path transform="matrix(1,0,0,-1,260.8831,103.170009)" d="M0 0C.986 0 1.826 .377 2.496 1.119 3.16 1.853 3.496 2.736 3.496 3.742 3.496 4.655 3.165 5.457 2.513 6.128 1.859 6.8 1.014 7.14 0 7.14-.918 7.14-1.724 6.778-2.395 6.062-3.06 5.352-3.398 4.497-3.398 3.521-3.398 2.576-3.06 1.745-2.392 1.051-1.722 .354-.917 0 0 0" fill="#333132"/>
<path transform="matrix(1,0,0,-1,269.0842,140.20981)" d="M0 0-.285 .008C-.807 .024-1.458 .109-2.219 .261-2.98 .413-3.532 .554-3.849 .674-4.361 .894-4.724 1.187-4.928 1.547-5.14 1.919-5.247 2.355-5.247 2.843V28.144C-5.247 28.64-5.149 29.094-4.956 29.495-4.778 29.866-4.425 30.13-3.877 30.303-3.369 30.461-2.762 30.595-2.073 30.699-1.382 30.804-.78 30.865-.284 30.881L0 30.89V33.217H-16.329V30.9L-16.055 30.881C-15.597 30.85-14.995 30.748-14.266 30.581-13.538 30.412-12.927 30.23-12.447 30.039-11.85 29.805-11.472 29.528-11.325 29.215-11.164 28.87-11.082 28.427-11.082 27.898V2.573C-11.082 1.977-11.19 1.514-11.402 1.195-11.613 .878-11.965 .622-12.445 .433-12.762 .312-13.331 .218-14.137 .155-14.974 .089-15.614 .041-16.057 .008L-16.329-.013V-2.328H0Z" fill="#333132"/>
<path transform="matrix(1,0,0,-1,295.6724,148.3536)" d="M0 0C0 .783-.198 1.447-.588 1.973-.966 2.484-1.452 2.894-2.031 3.192-2.664 3.518-3.3 3.731-3.921 3.825-4.444 3.905-5.03 3.951-5.667 3.962V5.129C-2.288 5.185 .537 6.229 2.737 8.233 5.007 10.301 6.158 12.927 6.158 16.038 6.158 17.362 5.975 18.543 5.612 19.55 5.245 20.56 4.675 21.5 3.912 22.347 3.223 23.087 2.401 23.743 1.469 24.297 .557 24.84-.412 25.334-1.408 25.766-2.495 26.244-3.633 26.698-4.788 27.116-5.936 27.531-7.116 28.029-8.297 28.596-9.592 29.211-10.59 30.004-11.264 30.952-11.931 31.889-12.268 33.096-12.268 34.539-12.268 35.911-11.76 37.04-10.713 37.992-9.674 38.939-8.398 39.419-6.921 39.419-5.501 39.419-4.289 39.145-3.319 38.606-2.343 38.062-1.504 37.323-.826 36.41-.123 35.451 .456 34.365 .897 33.18 1.342 31.983 1.749 30.707 2.108 29.387L2.167 29.17H4.686L4.479 41.361H2.053L1.11 39.797C.114 40.397-.989 40.932-2.171 41.39-3.472 41.894-4.962 42.149-6.6 42.149-8.041 42.149-9.444 41.898-10.768 41.404-12.094 40.909-13.261 40.215-14.237 39.34-15.263 38.415-16.066 37.348-16.622 36.169-17.18 34.985-17.463 33.692-17.463 32.325-17.463 29.954-16.892 28.001-15.765 26.519-14.648 25.05-13.064 23.847-11.059 22.945-10.058 22.487-8.849 21.993-7.466 21.477-6.09 20.962-4.869 20.493-3.803 20.069-2.307 19.47-1.167 18.582-.417 17.43 .337 16.276 .719 15.015 .719 13.681 .719 12.765 .596 11.947 .352 11.249 .113 10.561-.258 9.953-.752 9.444-1.242 8.938-1.895 8.539-2.694 8.259-3.505 7.976-4.471 7.832-5.566 7.832-7.024 7.832-8.317 8.111-9.412 8.663-10.515 9.217-11.492 9.973-12.317 10.91-13.197 11.917-13.915 13.017-14.451 14.178-14.992 15.346-15.471 16.678-15.876 18.136L-15.936 18.351H-18.457L-18.095 5.791H-15.671L-14.674 7.482C-13.691 6.917-12.658 6.442-11.601 6.067-10.53 5.686-9.386 5.415-8.2 5.259V.716H-7.906C-7.029 .716-6.141 .612-5.264 .405-4.493 .225-4.135-.167-4.135-.826-4.135-1.294-4.278-1.641-4.571-1.887-4.895-2.157-5.368-2.363-5.975-2.5-6.461-2.608-7.109-2.676-7.903-2.7-8.712-2.725-9.453-2.737-10.123-2.737H-10.417V-5.122H-10.123C-8.66-5.122-7.348-5.06-6.223-4.935-5.086-4.81-4.057-4.568-3.169-4.216-2.188-3.837-1.409-3.292-.852-2.598-.287-1.89 0-1.016 0 0" fill="#333132"/>
<path transform="matrix(1,0,0,-1,309.6007,109.3096)" d="M0 0 .274-.019C.732-.05 1.334-.152 2.063-.32 2.791-.488 3.402-.67 3.882-.861 4.479-1.095 4.857-1.372 5.004-1.685 5.165-2.031 5.247-2.474 5.247-3.002V-28.328C5.247-28.923 5.139-29.386 4.927-29.705 4.716-30.022 4.364-30.279 3.884-30.467 3.567-30.589 2.998-30.682 2.192-30.745 1.355-30.811 .715-30.86 .272-30.893L0-30.913V-33.228H16.329V-30.9L16.044-30.892C15.522-30.876 14.871-30.791 14.109-30.639 13.349-30.487 12.797-30.346 12.48-30.226 11.968-30.006 11.605-29.713 11.401-29.353 11.189-28.982 11.082-28.545 11.082-28.057V-2.756C11.082-2.26 11.18-1.806 11.373-1.405 11.551-1.034 11.904-.77 12.452-.597 12.96-.439 13.567-.305 14.256-.201 14.947-.096 15.549-.035 16.045-.02L16.329-.01V2.317H0Z" fill="#333132"/>
<path transform="matrix(1,0,0,-1,317.7285,103.170009)" d="M0 0C.986 0 1.826 .377 2.496 1.119 3.16 1.853 3.496 2.736 3.496 3.742 3.496 4.655 3.165 5.457 2.513 6.128 1.859 6.8 1.014 7.14 0 7.14-.918 7.14-1.724 6.778-2.395 6.062-3.06 5.352-3.398 4.497-3.398 3.521-3.398 2.576-3.06 1.745-2.392 1.051-1.722 .354-.917 0 0 0" fill="#333132"/>
<path transform="matrix(1,0,0,-1,376.5502,140.2014)" d="M0 0C-.428 .015-1.018 .093-1.756 .229-2.652 .394-3.06 .55-3.249 .656-3.749 .921-4.088 1.226-4.257 1.562-4.432 1.913-4.521 2.358-4.521 2.885V28.087C-4.521 28.586-4.43 29.053-4.249 29.474-4.084 29.858-3.77 30.128-3.29 30.298-2.976 30.407-2.465 30.527-1.769 30.656-1.072 30.784-.494 30.857-.05 30.872L.233 30.883V33.209H-11.737L-11.752 32.932C-11.768 32.656-11.886 32.081-12.102 31.224-12.32 30.357-12.586 29.519-12.891 28.732L-21.162 7.491-30.905 33.02-30.977 33.209H-43.392V30.885L-43.111 30.873C-42.416 30.841-41.701 30.721-40.987 30.514-40.293 30.314-39.701 30.003-39.229 29.592-38.807 29.215-38.477 28.715-38.25 28.107-38.016 27.486-37.899 26.667-37.899 25.672V7.787C-37.899 5.587-38.004 4-38.211 3.072-38.409 2.19-38.773 1.533-39.293 1.117-39.699 .786-40.292 .532-41.056 .362-41.858 .184-42.629 .062-43.346-.001L-43.614-.025V-2.336H-28.91V-.013L-29.19 0C-29.51 .015-30.235 .177-31.344 .482-32.69 .852-33.238 1.184-33.47 1.405-33.947 1.822-34.309 2.533-34.548 3.52-34.796 4.541-34.922 6.068-34.922 8.057V28.157L-23.813-1.579-23.741-1.77H-22.107L-10.307 27.707V2.885C-10.307 2.333-10.413 1.873-10.622 1.519-10.836 1.159-11.179 .833-11.632 .555-11.834 .444-12.294 .287-13.333 .17-14.223 .071-14.92 .016-15.466 0L-15.751-.008V-2.336H.283V-.01Z" fill="#333132"/>
<path transform="matrix(1,0,0,-1,67.3349,14.446396)" d="M0 0C-9.484-4.48-10.052-4.748-10.645-4.49-10.003-2.488 3.358 2.804 8.214 3.637 8.023 3.474 8.023 3.474 7.04 3.083 5.096 2.31 3.156 1.49 0 0" fill="#d5b782"/>
<path transform="matrix(1,0,0,-1,76.908,13.816696)" d="M0 0C-7.388-4.663-11.347-4.981-10.953-3.592-10.255-1.132-.053 3.058 4.19 3.479 4.293 3.479 4.433 3.473 4.535 3.454 4.555 3.415 4.582 3.364 4.602 3.325 4.228 2.673 .172 .109 0 0" fill="#d5b782"/>
<path transform="matrix(1,0,0,-1,89.5228,13.443405)" d="M0 0C-3.143-4.243-9.868-5.104-10.236-2.78-10.638-.234-3.961 3.2-.295 3.43 2.472 3.381 .102 .138 0 0" fill="#d5b782"/>
<path transform="matrix(1,0,0,-1,102.8297,13.383896)" d="M0 0C.719-3.4-4.571-5.038-7.608-3.124-10.801-1.112-8.578 2.651-5.517 3.371-5.137 3.46-4.821 3.473-4.566 3.483-2.181 3.391-.339 1.604 0 0" fill="#d5b782"/>
<path transform="matrix(1,0,0,-1,115.4722,13.622101)" d="M0 0C2.349-2.103 1.651-3.695-.474-3.863-5.595-4.267-10.983 1.721-9.329 3.351-9.065 3.611-8.629 3.62-8.311 3.627-6.147 3.494-2.202 1.971 0 0" fill="#d5b782"/>
<path transform="matrix(1,0,0,-1,126.1039,14.141006)" d="M0 0C3.562-1.942 4.517-3.501 3.358-3.831 2.571-4.054 .44-3.696-2.976-1.949-5.861-.473-11.539 3.255-11.518 3.777-11.423 3.851-11.373 3.856-11.103 3.856-9.062 3.661-3.851 2.1 0 0" fill="#d5b782"/>
<path transform="matrix(1,0,0,-1,133.1805,14.895706)" d="M0 0C3.233-1.438 6.633-3.356 6.489-3.947 6.313-4.012 5.947-4.148 3.072-2.924 2.938-2.867-12.28 4.002-12.466 4.12-12.432 4.126-12.386 4.134-12.352 4.14-11.282 3.962-5.703 2.537 0 0" fill="#d5b782"/>
<path transform="matrix(1,0,0,-1,42.1719,29.468796)" d="M0 0C-5.787-5.204-9.036-7.634-9.656-7.224-9.944-5.047 3.126 5.667 6.799 6.836 6.841 6.838 6.896 6.842 6.937 6.844 6.974 6.593 7.015 6.308 0 0" fill="#d5b782"/>
<path transform="matrix(1,0,0,-1,54.4131,28.29451)" d="M0 0C-5.681-6.076-12.191-8.748-12.317-5.975-12.489-2.22-2.047 5.994 2.777 6.712 6.266 6.745 .063 .067 0 0" fill="#d5b782"/>
<path transform="matrix(1,0,0,-1,73.2484,27.4422)" d="M0 0C-3.957-6.565-13.362-8.892-14.638-4.807-15.878-.835-8.146 6.147-1.91 6.687 2.933 6.636 1.111 1.843 0 0" fill="#d5b782"/>
<path transform="matrix(1,0,0,-1,94.8627,27.089097)" d="M0 0C-1.248-6.935-11.57-8.651-14.453-3.934-16.936 .128-11.83 6.437-5.782 6.781-.981 6.622 .49 2.72 0 0" fill="#d5b782"/>
<path transform="matrix(1,0,0,-1,116.4861,27.239502)" d="M0 0C1.466-5.651-5.611-8.081-10.767-5.065-16.459-1.736-15.68 5.305-10.811 6.712-10.135 6.907-9.514 6.93-9.015 6.947-4.022 6.669-.684 2.637 0 0" fill="#d5b782"/>
<path transform="matrix(1,0,0,-1,135.9148,27.865998)" d="M0 0C2.745-4.161 .692-7.176-4.146-6.088-11.439-4.448-16.744 4.676-13.087 6.809-12.482 7.162-11.893 7.171-11.269 7.182-6.992 6.814-2.09 3.167 0 0" fill="#d5b782"/>
<path transform="matrix(1,0,0,-1,150.9119,28.939103)" d="M0 0C3.502-3.611 4.026-6.477 1.144-6.258-4.703-5.814-15.275 5.742-13.09 7.312-12.851 7.484-12.468 7.48-12.161 7.477-8.759 6.998-3.127 3.224 0 0" fill="#d5b782"/>
<path transform="matrix(1,0,0,-1,158.5159,30.27211)" d="M0 0C2.745-2.425 5.635-5.43 5.494-6.295 3.799-7.346-11.162 7.475-11.205 7.692-11.144 7.704-11.063 7.722-11.002 7.735-9.549 7.28-4.66 4.117 0 0" fill="#d5b782"/>
<path transform="matrix(1,0,0,-1,22.0587,49.971498)" d="M0 0C-5.436-8.473-6.159-9.08-6.432-9.309-6.458-9.287-6.494-9.257-6.52-9.235-6.449-8.973-6.368-8.735-5.912-7.85L-5.89-7.807C-1.183 .471-1.183 .471 1.655 4.341L4.664 8.222C5.265 8.951 5.42 9.094 5.603 9.242 5.621 9.224 5.646 9.199 5.664 9.181 5.537 8.851 5.323 8.298 0 0" fill="#d5b782"/>
<path transform="matrix(1,0,0,-1,33.101,48.334199)" d="M0 0C-4.06-6.822-9.765-11.205-10.709-8.228-11.967-4.257-3.211 8.086 1.62 9.15 4.444 9.213 2.125 3.571 0 0" fill="#d5b782"/>
<path transform="matrix(1,0,0,-1,53.2907,47.0063)" d="M0 0C-3.616-7.732-13.548-11.865-15.403-6.41-17.072-1.499-10.194 8.303-3.026 9.141 2.003 9.127 1.771 3.787 0 0" fill="#d5b782"/>
<path transform="matrix(1,0,0,-1,79.8956,46.218904)" d="M0 0C-2.115-8.122-14.14-11.724-17.87-5.354-20.864-.24-15.378 8.645-6.854 9.264-.145 9.104 .911 3.497 0 0" fill="#d5b782"/>
<path transform="matrix(1,0,0,-1,107.9597,46.093507)" d="M0 0C-.196-7.819-10.825-11.381-16.726-5.604-21.918-.521-18.662 9.025-9.608 9.454-2.825 9.143 .094 3.739 0 0" fill="#d5b782"/>
<path transform="matrix(1,0,0,-1,134.6229,46.595705)" d="M0 0C1.46-6.949-5.922-10.681-12.74-6.441-20.494-1.618-19.52 8.319-12.959 9.564-12.482 9.655-11.831 9.679-11.345 9.692-4.826 9.223-.786 3.742 0 0" fill="#d5b782"/>
<path transform="matrix(1,0,0,-1,157.0453,47.690309)" d="M0 0C2.43-5.812-.747-9.595-6.295-7.497-14.766-4.293-18.713 7.714-13.641 9.714-13.003 9.965-12.34 9.97-11.807 9.973-6.339 9.356-1.529 3.657 0 0" fill="#d5b782"/>
<path transform="matrix(1,0,0,-1,171.9698,49.281908)" d="M0 0C2.954-5.15 2.903-8.769-.113-7.903-5.72-6.292-14.898 8.75-11.147 10.181-10.939 10.26-10.63 10.251-10.407 10.246-6.854 9.498-2.182 3.804 0 0" fill="#d5b782"/>
<path transform="matrix(1,0,0,-1,180.6996,58.239809)" d="M0 0C.245-.501 .294-.665 .341-.823 .316-.845 .284-.874 .259-.896-1.047 .224-11.309 16.165-11.872 17.574-11.855 17.592-11.832 17.616-11.815 17.634-11.615 17.468-11.532 17.383-11.027 16.782L-7.888 12.759C-2.54 4.885-2.54 4.885-.321 .627L-.175 .346C-.122 .242-.051 .104 0 0" fill="#d5b782"/>
<path transform="matrix(1,0,0,-1,16.785,71.9337)" d="M0 0C-2.323-7.449-5.795-12.494-6.88-9.998-8.406-6.487-3.453 9.452 .488 10.932 2.646 11.028 1.334 4.277 0 0" fill="#d5b782"/>
<path transform="matrix(1,0,0,-1,34.5771,70.2269)" d="M0 0C-2.515-8.757-10.068-13.631-12.828-8.277-15.664-2.774-10.651 9.84-3.791 10.952 1.001 10.977 1.31 4.563 0 0" fill="#d5b782"/>
<path transform="matrix(1,0,0,-1,61.9532,68.98801)" d="M0 0C-2.118-9.624-14.248-13.881-18.541-6.507-22.161-.288-17.088 10.225-7.907 11.075-.394 10.972 .93 4.227 0 0" fill="#d5b782"/>
<path transform="matrix(1,0,0,-1,93.3684,68.4749)" d="M0 0C-1.163-9.714-13.873-13.603-19.71-6.031-24.466 .14-20.087 10.691-10.151 11.296-2.251 11.008 .541 4.517 0 0" fill="#d5b782"/>
<path transform="matrix(1,0,0,-1,124.7968,68.6935)" d="M0 0C-.072-9.155-11.204-13.088-18.047-6.376-24.317-.227-21.477 11.146-11.344 11.541-3.461 11.069 .035 4.508 0 0" fill="#d5b782"/>
<path transform="matrix(1,0,0,-1,153.0354,69.604007)" d="M0 0C.901-8.692-7.588-12.65-14.417-6.724-21.667-.432-20.315 11.16-12.259 11.788-11.986 11.81-11.62 11.801-11.346 11.806-4.296 11.156-.467 4.511 0 0" fill="#d5b782"/>
<path transform="matrix(1,0,0,-1,174.8329,71.1639)" d="M0 0C1.493-7.297-2.457-11.514-7.684-8.203-14.855-3.662-17.362 10.494-11.261 11.992-10.879 12.086-10.346 12.09-9.953 12.088-4.627 11.273-.927 4.528 0 0" fill="#d5b782"/>
<path transform="matrix(1,0,0,-1,185.8849,73.101207)" d="M0 0C1.689-6.033 1.469-10.138-.492-9.153-4.654-7.059-10.272 11.761-6.886 12.27-6.801 12.283-6.684 12.261-6.597 12.257-4.163 11.36-1.274 4.549 0 0" fill="#d5b782"/>
<path transform="matrix(1,0,0,-1,8.2099,100.281009)" d="M0 0C-.033-4.135-.331-11.16-1.236-11.26-1.538-10.993-1.886-10.145-2.181-5.886L-2.366-.085-2.107 6.972C-1.744 11.602-1.321 12.069-1.14 12.269-1.104 12.273-1.057 12.278-1.021 12.282-.144 11.488 .034 4.188 0 0" fill="#d5b782"/>
<path transform="matrix(1,0,0,-1,21.2659,98.3451)" d="M0 0C-.353-8.342-4.263-13.627-7.471-10.099-11.756-5.385-10.948 10.901-5.073 12.33-1.212 12.38 .218 5.15 0 0" fill="#d5b782"/>
<path transform="matrix(1,0,0,-1,45.1371,96.7751)" d="M0 0C-.743-9.745-9.834-14.612-14.966-8.012-20.018-1.512-17.322 11.399-8.857 12.465-2.097 12.41 .392 5.143 0 0" fill="#d5b782"/>
<path transform="matrix(1,0,0,-1,76.5934,95.8442)" d="M0 0C-.95-10.331-13.099-14.583-19.402-6.791-24.929 .042-21.252 11.898-10.879 12.71-2.125 12.462 .44 4.782 0 0" fill="#d5b782"/>
<path transform="matrix(1,0,0,-1,109.7751,95.6958)" d="M0 0C-1.007-10.381-13.618-14.339-20.14-6.322-25.81 .648-22.013 12.414-11.351 12.97-2.21 12.507 .463 4.769 0 0" fill="#d5b782"/>
<path transform="matrix(1,0,0,-1,18.0245,128.3925)" d="M0 0C1.639-5.945 1.661-11.426-.926-9.784-4.876-7.277-10.649 9.881-6.786 11.533-4.32 11.615-1.333 4.838 0 0" fill="#d5b782"/>
<path transform="matrix(1,0,0,-1,35.5576,126.7106)" d="M0 0C1.303-7.525-2.511-12.172-7.419-9.041-14.508-4.519-16.65 9.941-10.474 11.589-10.273 11.643-9.996 11.672-9.791 11.708-4.437 11.713-.842 4.864 0 0" fill="#d5b782"/>
<path transform="matrix(1,0,0,-1,62.5354,125.4898)" d="M0 0C.399-8.941-8.45-13.068-15.272-7.121-21.658-1.555-22.036 10.947-11.76 11.95-4.011 11.82-.218 4.884 0 0" fill="#d5b782"/>
<path transform="matrix(1,0,0,-1,93.4935,124.9841)" d="M0 0C-.809-10.039-12.776-13.271-19.11-5.162-24.3 1.482-21.166 11.601-11.355 12.235-2.87 11.899 .393 4.878 0 0" fill="#d5b782"/>
<path transform="matrix(1,0,0,-1,25.1805,153.1329)" d="M0 0C3.402-5.079 4.988-7.891 4.713-8.359 2.788-8.547-8.962 8.317-7.987 9.868-6.757 9.988-1.118 1.669 0 0" fill="#d5b782"/>
<path transform="matrix(1,0,0,-1,35.7847,151.56061)" d="M0 0C2.481-4.702 3.186-9.115 .073-8.36-5.787-6.939-14.58 7.11-11.262 9.752-11.063 9.911-10.721 10.008-10.474 10.072-7.148 10.121-2.595 4.919 0 0" fill="#d5b782"/>
<path transform="matrix(1,0,0,-1,55.1732,150.2854)" d="M0 0C1.922-6.172-1.356-10.788-7.779-7.176-16.069-2.514-19.329 8.863-12.762 10.215-12.534 10.261-12.224 10.284-11.994 10.314-5.923 10.27-1.325 4.256 0 0" fill="#d5b782"/>
<path transform="matrix(1,0,0,-1,80.7225,149.5293)" d="M0 0C.475-7.408-7.087-11.528-14.252-5.276-20.746 .39-20.325 9.895-11.358 10.603-3.98 10.399-.274 4.28 0 0" fill="#d5b782"/>
<path transform="matrix(1,0,0,-1,45.6059,171.2226)" d="M0 0C4.333-4.007 6.169-6.135 5.458-6.325 2.551-7.098-13.08 6.131-11.267 7.831-11.221 7.874-11.135 7.896-11.078 7.924-8.89 7.997-2.602 2.407 0 0" fill="#d5b782"/>
<path transform="matrix(1,0,0,-1,57.1269,170.1174)" d="M0 0C1.949-2.479 4.441-6.622 1.415-6.421-3.995-6.062-16.034 4.498-13.113 7.682-12.798 8.025-12.327 8.11-11.948 8.179-8.162 8.186-3.101 3.944 0 0" fill="#d5b782"/>
<path transform="matrix(1,0,0,-1,74.854,169.3152)" d="M0 0C1.873-4.808-.245-8.227-6.278-5.447-14.055-1.863-18.051 6.566-12.756 8.219-12.346 8.347-11.77 8.407-11.342 8.45-5.397 8.352-1.302 3.343 0 0" fill="#d5b782"/>
<path transform="matrix(1,0,0,-1,95.1965,168.98291)" d="M0 0C-.194-6.27-6.941-8.943-12.294-2.867-16.414 1.81-15.408 8.257-8.692 8.697-3.09 8.474 .127 4.1 0 0" fill="#d5b782"/>
<path transform="matrix(1,0,0,-1,69.7124,184.77121)" d="M0 0C6.393-3.444 6.393-3.444 6.591-3.649 6.565-3.681 6.531-3.722 6.506-3.753 1.836-3.771-14.348 4.067-12.317 5.363-12.261 5.398-12.17 5.407-12.108 5.425-10.108 5.445-5.424 2.922 0 0" fill="#d5b782"/>
<path transform="matrix(1,0,0,-1,78.599,184.1867)" d="M0 0C4.493-3.773 3.403-3.851 3.045-3.877-.654-4.141-14.083 3.071-11.968 5.345-11.745 5.586-11.324 5.645-11.017 5.688-7.031 5.647-1.577 1.324 0 0" fill="#d5b782"/>
<path transform="matrix(1,0,0,-1,90.3093,183.8401)" d="M0 0C.546-1.296 1.933-5.366-3.142-3.306-9.052-.906-12.642 4.094-9.545 5.611-9.071 5.844-8.513 5.891-8.106 5.925-4.2 5.805-1.166 2.77 0 0" fill="#d5b782"/>
<path transform="matrix(1,0,0,-1,102.6618,183.7849)" d="M0 0C-1.57-4.438-6.03-5.508-8.271-.482-9.6 2.499-8.286 5.845-4.211 6.073-.306 5.86 .997 2.818 0 0" fill="#d5b782"/>
<path transform="matrix(1,0,0,-1,114.3977,184.006)" d="M0 0C-1.33-1.212-8.825-6.442-8.459-1.912-8.203 1.253-4.76 5.957 .054 6.124 3.65 5.82 2.912 2.653 0 0" fill="#d5b782"/>
<path transform="matrix(1,0,0,-1,124.2671,184.48781)" d="M0 0C-3.844-2.176-10.078-4.344-9.864-3.189-9.666-2.125-1.003 6.01 4.281 6.084 6.747 5.749 4.851 3.433 2.974 1.958 2.146 1.307 1.145 .648 0 0" fill="#d5b782"/>
<path transform="matrix(1,0,0,-1,130.8362,185.18831)" d="M0 0C-4.661-2.048-9.803-3.473-10.439-3.248-9.998-2.306 5.224 5.973 8.192 5.938 9.564 5.55 6.466 3.329 3.828 1.877 2.669 1.238 1.381 .607 0 0" fill="#d5b782"/>
<path transform="matrix(1,0,0,-1,179.6943,166.7408)" d="M0 0H6.31V-9.026C5.328-9.34 4.329-9.576 3.313-9.737 2.298-9.898 1.122-9.979-.216-9.979-3.026-9.979-5.213-9.143-6.779-7.471-8.345-5.8-9.128-3.457-9.128-.444-9.128 1.485-8.741 3.176-7.966 4.627-7.192 6.079-6.077 7.187-4.621 7.953-3.166 8.72-1.46 9.103 .495 9.103 2.476 9.103 4.321 8.738 6.03 8.011L5.192 6.106C3.517 6.817 1.904 7.173 .355 7.173-1.904 7.173-3.669 6.5-4.938 5.154-6.208 3.809-6.843 1.942-6.843-.444-6.843-2.949-6.231-4.85-5.008-6.145-3.785-7.439-1.989-8.087 .381-8.087 1.667-8.087 2.924-7.938 4.151-7.643V-1.93H0Z" fill="#808285"/>
<path transform="matrix(1,0,0,-1,201.1982,166.8932)" d="M0 0H2.958C4.481 0 5.599 .303 6.31 .908 7.021 1.513 7.376 2.421 7.376 3.631 7.376 4.858 7.014 5.742 6.291 6.284 5.567 6.826 4.405 7.097 2.806 7.097H0ZM0-1.854V-9.572H-2.158V8.988H2.933C5.209 8.988 6.892 8.553 7.979 7.681 9.066 6.809 9.61 5.497 9.61 3.745 9.61 1.291 8.366-.368 5.878-1.231L10.918-9.572H8.366L3.872-1.854Z" fill="#808285"/>
<path transform="matrix(1,0,0,-1,225.0127,167.1598)" d="M0 0C0-2.514 .535-4.42 1.606-5.72 2.676-7.019 4.232-7.668 6.271-7.668 8.328-7.668 9.881-7.021 10.93-5.726 11.98-4.431 12.504-2.522 12.504 0 12.504 2.497 11.982 4.391 10.937 5.681 9.891 6.972 8.345 7.617 6.296 7.617 4.24 7.617 2.676 6.968 1.606 5.669 .535 4.369 0 2.479 0 0M14.79 0C14.79-2.971 14.039-5.307 12.537-7.008 11.034-8.709 8.946-9.56 6.271-9.56 3.538-9.56 1.428-8.724-.057-7.052-1.542-5.381-2.285-3.021-2.285 .025-2.285 3.047-1.541 5.39-.051 7.052 1.439 8.716 3.554 9.547 6.296 9.547 8.962 9.547 11.044 8.7 12.542 7.008 14.041 5.315 14.79 2.979 14.79 0" fill="#808285"/>
<path transform="matrix(1,0,0,-1,266.5366,157.9049)" d="M0 0V-12.01C0-14.126-.639-15.789-1.917-16.999-3.195-18.209-4.951-18.814-7.186-18.814-9.42-18.814-11.148-18.205-12.372-16.986-13.595-15.768-14.206-14.092-14.206-11.959V0H-12.048V-12.111C-12.048-13.66-11.625-14.85-10.778-15.679-9.932-16.508-8.688-16.923-7.046-16.923-5.48-16.923-4.274-16.506-3.428-15.672-2.581-14.839-2.158-13.644-2.158-12.086V0Z" fill="#808285"/>
<path transform="matrix(1,0,0,-1,282.188,167.3121)" d="M0 0H1.942C3.855 0 5.239 .309 6.094 .927 6.948 1.545 7.376 2.535 7.376 3.897 7.376 5.125 6.974 6.039 6.17 6.64 5.366 7.24 4.113 7.541 2.412 7.541H0ZM9.61 3.999C9.61 2.12 8.97 .675 7.687-.337 6.405-1.348 4.57-1.854 2.184-1.854H0V-9.153H-2.158V9.407H2.653C7.291 9.407 9.61 7.604 9.61 3.999" fill="#808285"/>
</g>
</g>
</svg>
