<svg width="200" height="200" viewBox="0 0 200 200" xmlns="http://www.w3.org/2000/svg">
  <defs>
    <linearGradient id="furnitureGrad" x1="0%" y1="0%" x2="100%" y2="100%">
      <stop offset="0%" style="stop-color:#10b981;stop-opacity:1" />
      <stop offset="100%" style="stop-color:#059669;stop-opacity:1" />
    </linearGradient>
  </defs>
  
  <!-- Background -->
  <circle cx="100" cy="100" r="80" fill="#f0fdf4" opacity="0.8"/>
  
  <!-- Chair -->
  <!-- Chair back -->
  <rect x="70" y="50" width="60" height="8" fill="url(#furnitureGrad)" rx="4"/>
  <rect x="70" y="50" width="8" height="40" fill="url(#furnitureGrad)" rx="4"/>
  <rect x="122" y="50" width="8" height="40" fill="url(#furnitureGrad)" rx="4"/>
  
  <!-- Chair seat -->
  <rect x="65" y="85" width="70" height="8" fill="url(#furnitureGrad)" rx="4"/>
  
  <!-- Chair legs -->
  <rect x="70" y="93" width="6" height="35" fill="url(#furnitureGrad)" rx="3"/>
  <rect x="124" y="93" width="6" height="35" fill="url(#furnitureGrad)" rx="3"/>
  <rect x="70" y="120" width="6" height="8" fill="url(#furnitureGrad)" rx="3"/>
  <rect x="124" y="120" width="6" height="8" fill="url(#furnitureGrad)" rx="3"/>
  
  <!-- Table -->
  <!-- Table top -->
  <ellipse cx="100" cy="150" rx="40" ry="12" fill="#065f46"/>
  
  <!-- Table leg -->
  <rect x="96" y="150" width="8" height="25" fill="#065f46" rx="4"/>
  <circle cx="100" cy="175" r="8" fill="#065f46"/>
  
  <!-- Decorative elements -->
  <circle cx="50" cy="70" r="3" fill="#10b981" opacity="0.6"/>
  <circle cx="150" cy="80" r="4" fill="#059669" opacity="0.6"/>
  <circle cx="40" cy="140" r="2" fill="#10b981" opacity="0.6"/>
  <circle cx="160" cy="130" r="3" fill="#059669" opacity="0.6"/>
</svg>
