<svg width="200" height="200" viewBox="0 0 200 200" xmlns="http://www.w3.org/2000/svg">
  <defs>
    <linearGradient id="logisticsGrad" x1="0%" y1="0%" x2="100%" y2="100%">
      <stop offset="0%" style="stop-color:#ef4444;stop-opacity:1" />
      <stop offset="100%" style="stop-color:#dc2626;stop-opacity:1" />
    </linearGradient>
  </defs>
  
  <!-- Background -->
  <circle cx="100" cy="100" r="80" fill="#fef2f2" opacity="0.8"/>
  
  <!-- Truck body -->
  <rect x="45" y="90" width="70" height="35" fill="url(#logisticsGrad)" rx="4"/>
  
  <!-- Truck cab -->
  <rect x="115" y="85" width="25" height="40" fill="url(#logisticsGrad)" rx="4"/>
  
  <!-- Truck windows -->
  <rect x="120" y="88" width="15" height="8" fill="#bfdbfe" rx="2"/>
  <rect x="120" y="98" width="6" height="8" fill="#bfdbfe" rx="2"/>
  
  <!-- Truck wheels -->
  <circle cx="60" cy="135" r="8" fill="#374151"/>
  <circle cx="60" cy="135" r="5" fill="#6b7280"/>
  <circle cx="125" cy="135" r="8" fill="#374151"/>
  <circle cx="125" cy="135" r="5" fill="#6b7280"/>
  
  <!-- Truck door -->
  <rect x="45" y="95" width="2" height="25" fill="#dc2626"/>
  
  <!-- Cargo boxes -->
  <rect x="50" y="95" width="12" height="10" fill="#fbbf24" rx="2"/>
  <rect x="65" y="95" width="10" height="10" fill="#34d399" rx="2"/>
  <rect x="78" y="95" width="12" height="10" fill="#60a5fa" rx="2"/>
  <rect x="55" y="107" width="10" height="8" fill="#f472b6" rx="2"/>
  <rect x="70" y="107" width="15" height="8" fill="#a78bfa" rx="2"/>
  
  <!-- Route line -->
  <path d="M30 50 Q50 40 80 45 T130 40 Q150 45 170 50" stroke="#6b7280" stroke-width="3" fill="none" stroke-dasharray="5,5"/>
  
  <!-- Location pins -->
  <circle cx="30" cy="50" r="5" fill="#ef4444"/>
  <circle cx="30" cy="50" r="2" fill="white"/>
  <circle cx="100" cy="42" r="4" fill="#10b981"/>
  <circle cx="100" cy="42" r="1.5" fill="white"/>
  <circle cx="170" cy="50" r="5" fill="#3b82f6"/>
  <circle cx="170" cy="50" r="2" fill="white"/>
  
  <!-- Speed lines -->
  <line x1="35" y1="85" x2="25" y2="85" stroke="#dc2626" stroke-width="2" opacity="0.6"/>
  <line x1="35" y1="90" x2="20" y2="90" stroke="#dc2626" stroke-width="2" opacity="0.6"/>
  <line x1="35" y1="95" x2="25" y2="95" stroke="#dc2626" stroke-width="2" opacity="0.6"/>
</svg>
