<svg xmlns="http://www.w3.org/2000/svg" viewBox="0 0 200 200" fill="none">
  <defs>
    <linearGradient id="paintGrad" x1="0%" y1="0%" x2="100%" y2="100%">
      <stop offset="0%" style="stop-color:#E8F5E8"/>
      <stop offset="50%" style="stop-color:#C8E6C9"/>
      <stop offset="100%" style="stop-color:#4CAF50"/>
    </linearGradient>
  </defs>
  <rect width="200" height="200" fill="url(#paintGrad)" rx="20"/>
  
  <!-- Boya Kutuları -->
  <rect x="30" y="50" width="35" height="45" fill="#F44336" rx="3"/>
  <rect x="75" y="50" width="35" height="45" fill="#FF9800" rx="3"/>
  <rect x="120" y="50" width="35" height="45" fill="#2196F3" rx="3"/>
  <rect x="165" y="50" width="35" height="45" fill="#9C27B0" rx="3"/>
  
  <!-- Fırçalar -->
  <rect x="40" y="110" width="6" height="40" fill="#8D6E63"/>
  <ellipse cx="43" cy="105" rx="8" ry="12" fill="#37474F"/>
  
  <rect x="90" y="110" width="6" height="40" fill="#8D6E63"/>
  <ellipse cx="93" cy="105" rx="8" ry="12" fill="#37474F"/>
  
  <rect x="140" y="110" width="6" height="40" fill="#8D6E63"/>
  <ellipse cx="143" cy="105" rx="8" ry="12" fill="#37474F"/>
  
  <!-- Boya Damlaları -->
  <circle cx="50" cy="160" r="4" fill="#F44336"/>
  <circle cx="100" cy="165" r="3" fill="#FF9800"/>
  <circle cx="150" cy="160" r="5" fill="#2196F3"/>
</svg>
